<svg id="Capa_1" enable-background="new 0 0 512.52 512.52" height="512" viewBox="0 0 512.52 512.52" width="512" xmlns="http://www.w3.org/2000/svg"><g><path d="m512.52 301.92-3.34 6.69c-.71 1.45-18.07 35.74-57.99 69.95-23.36 20.02-49.72 35.97-78.35 47.4-35.65 14.24-74.87 21.46-116.58 21.46s-80.93-7.22-116.58-21.46c-28.63-11.43-54.99-27.38-78.35-47.4-39.92-34.21-57.28-68.5-57.99-69.95l-3.34-6.69 3.34-6.69c.71-1.44 18.07-35.74 57.99-69.95 23.36-20.01 49.72-35.96 78.35-47.4 35.65-14.24 74.87-21.46 116.58-21.46s80.93 7.22 116.58 21.46c28.63 11.44 54.99 27.39 78.35 47.4 39.92 34.21 57.28 68.51 57.99 69.95z" fill="#fbf3f3"/><path d="m512.52 301.92-3.34 6.69c-.71 1.45-18.07 35.74-57.99 69.95-23.36 20.02-49.72 35.97-78.35 47.4-35.65 14.24-74.87 21.46-116.58 21.46v-291c41.71 0 80.93 7.22 116.58 21.46 28.63 11.44 54.99 27.39 78.35 47.4 39.92 34.21 57.28 68.51 57.99 69.95z" fill="#e8e3f0"/><ellipse cx="256.26" cy="301.92" fill="#adcfff" rx="114.12" ry="114.12" transform="matrix(.707 -.707 .707 .707 -138.433 269.634)"/><path d="m370.38 301.92c0 63.03-51.09 114.12-114.12 114.12v-228.24c63.03 0 114.12 51.1 114.12 114.12z" fill="#6aa8ff"/><path d="m490.23 179.72-19.52 22.78c-40.5-34.7-110.58-76.08-214.45-76.08s-173.95 41.38-214.45 76.08l-19.52-22.78c44.34-38 120.93-83.3 233.97-83.3 6.56 0 12.99.15 19.31.45 11.8-.19 21.34-9.88 21.34-21.77v-10h30v10c0 9.61-2.62 18.61-7.2 26.33 12.19 1.98 23.83 4.49 34.93 7.43 10.99-1.05 19.62-10.31 19.62-21.54v-10h30v10c0 12.82-4.7 24.57-12.48 33.6 11.26 4.37 21.84 9.15 31.74 14.19 10.23-1.73 18.04-10.66 18.04-21.38v-10h30v10c0 15.48-6.84 29.4-17.66 38.88 13.9 8.99 25.99 18.25 36.33 27.11z" fill="#4e4e88"/><ellipse cx="256.26" cy="304.19" fill="#363671" rx="59.42" ry="59.42" transform="matrix(.257 -.967 .967 .257 -103.513 473.789)"/><path d="m315.68 304.19c0 32.82-26.6 59.42-59.42 59.42v-118.84c32.82 0 59.42 26.6 59.42 59.42z" fill="#16164d"/><circle cx="298.311" cy="266.143" fill="#fbf3f3" r="28.877"/><path d="m490.23 179.72-19.52 22.78c-40.5-34.7-110.58-76.08-214.45-76.08v-30c6.56 0 12.99.15 19.31.45 11.8-.19 21.34-9.88 21.34-21.77v-10h30v10c0 9.61-2.62 18.61-7.2 26.33 12.19 1.98 23.83 4.49 34.93 7.43 10.99-1.05 19.62-10.31 19.62-21.54v-10h30v10c0 12.82-4.7 24.57-12.48 33.6 11.26 4.37 21.84 9.15 31.74 14.19 10.23-1.73 18.04-10.66 18.04-21.38v-10h30v10c0 15.48-6.84 29.4-17.66 38.88 13.9 8.99 25.99 18.25 36.33 27.11z" fill="#363671"/></g></svg>