<?xml version="1.0" standalone="no"?>
<!DOCTYPE svg PUBLIC "-//W3C//DTD SVG 20010904//EN"
 "http://www.w3.org/TR/2001/REC-SVG-20010904/DTD/svg10.dtd">
<svg version="1.0" xmlns="http://www.w3.org/2000/svg"
 width="1123.000000pt" height="794.000000pt" viewBox="0 0 1123.000000 794.000000"
 preserveAspectRatio="xMidYMid meet">
<metadata>
Created by potrace 1.16, written by Peter Selinger 2001-2019
</metadata>
<g transform="translate(0.000000,794.000000) scale(0.100000,-0.100000)"
fill="#000000" stroke="none">
<path d="M1617 7548 c-13 -10 -20 -39 -28 -123 -5 -60 -15 -135 -23 -165 l-13
-55 -401 -3 c-348 -2 -402 -4 -403 -17 -1 -8 -3 -19 -4 -25 -1 -5 -3 -176 -4
-380 l-1 -369 -37 -11 c-21 -5 -90 -15 -153 -21 -63 -7 -121 -16 -127 -22 -10
-7 -13 -497 -13 -2388 0 -2148 2 -2379 16 -2393 10 -11 34 -16 67 -16 48 0
237 -26 244 -34 2 -2 4 -172 4 -379 -1 -207 2 -383 5 -392 5 -13 57 -15 405
-15 l398 0 11 -37 c5 -21 15 -76 21 -123 5 -47 13 -110 17 -140 l7 -55 4004
-3 c2663 -1 4008 1 4016 8 7 6 14 49 18 103 3 50 13 127 23 169 l17 78 401 2
401 3 3 391 2 391 68 12 c37 7 106 16 154 18 51 3 92 11 98 18 7 8 9 804 8
2401 l-3 2389 -113 12 c-62 6 -135 17 -163 23 l-49 12 -2 391 -3 392 -402 3
-401 2 -17 71 c-8 39 -18 114 -22 166 -4 61 -11 100 -20 109 -12 12 -577 14
-4002 14 -3174 0 -3991 -3 -4004 -12z m7948 -115 c7 -63 24 -171 31 -205 l6
-28 -3986 0 -3986 0 5 23 c17 75 24 120 31 185 l7 72 3943 0 3943 0 6 -47z
m-8045 -323 c-115 -291 -330 -516 -616 -643 -34 -15 -76 -30 -93 -33 l-31 -6
0 366 0 366 380 0 380 0 -20 -50z m8114 -2 c116 -332 398 -615 736 -738 l75
-28 3 -2375 2 -2375 -52 -18 c-164 -53 -323 -151 -454 -276 -136 -131 -232
-271 -294 -432 l-34 -86 -3975 -2 c-2187 -2 -3988 -2 -4003 0 -16 2 -28 8 -28
13 0 23 -56 150 -101 229 -145 257 -391 460 -662 549 l-67 23 2 2375 3 2375
76 28 c183 67 341 170 475 312 119 127 215 281 260 420 l19 58 4000 0 4000 0
19 -52z m816 -318 l0 -370 -67 26 c-252 94 -464 278 -605 524 -26 45 -78 166
-78 182 0 4 169 8 375 8 l375 0 0 -370z m-9709 -472 c-1 -5 -1 -1067 -1 -2361
l0 -2354 -77 13 c-43 7 -99 16 -125 19 l-48 6 0 2330 0 2329 48 1 c26 1 76 7
112 14 71 13 91 14 91 3z m9869 -7 c41 -6 89 -12 105 -14 l30 -2 3 -2327 2
-2327 -47 -6 c-96 -11 -181 -25 -197 -31 -15 -6 -16 195 -16 2361 l0 2367 23
-5 c12 -3 56 -10 97 -16z m-9665 -4866 c190 -90 341 -221 459 -398 52 -78 126
-229 126 -256 0 -8 -109 -11 -375 -11 l-375 0 0 365 0 365 28 -6 c15 -3 77
-30 137 -59z m9503 -300 l-3 -365 -373 -3 -373 -2 6 25 c13 50 77 175 132 258
121 183 319 341 527 423 39 16 74 28 79 29 4 0 6 -164 5 -365z m-848 -417 c0
-6 -7 -45 -14 -87 -8 -42 -18 -102 -21 -133 l-6 -58 -3945 0 -3944 0 0 28 c0
30 -26 205 -36 240 l-6 22 3986 0 c2998 0 3986 -3 3986 -12z"/>
<path d="M4595 5514 c-11 -2 -45 -9 -75 -15 -152 -30 -297 -142 -363 -280 -49
-104 -67 -195 -67 -342 0 -213 51 -359 167 -474 120 -120 267 -169 483 -160
143 6 221 26 343 89 l77 40 0 269 0 269 -220 0 -221 0 3 -67 3 -68 134 -5 134
-5 1 -165 1 -165 -65 -24 c-78 -28 -254 -40 -340 -22 -239 50 -359 271 -321
589 33 272 177 402 444 402 126 0 292 -55 374 -124 17 -14 34 -26 37 -26 4 0
5 39 4 88 l-3 87 -75 38 c-93 47 -233 77 -350 76 -47 -1 -94 -3 -105 -5z"/>
<path d="M2310 4880 l0 -620 80 0 80 0 0 620 0 620 -80 0 -80 0 0 -620z"/>
<path d="M2850 4880 l0 -620 80 0 80 0 0 512 0 513 83 -155 c73 -135 273 -513
416 -782 l46 -88 113 0 112 0 0 620 0 620 -80 0 -80 0 0 -512 c0 -303 -4 -508
-9 -503 -5 6 -89 161 -186 345 -98 184 -218 410 -267 503 l-90 167 -109 0
-109 0 0 -620z"/>
<path d="M5490 5072 c0 -265 4 -451 11 -488 28 -152 125 -270 264 -318 76 -26
245 -33 336 -12 127 28 224 98 274 196 51 101 55 140 55 613 l0 437 -85 0 -84
0 -3 -452 c-3 -443 -3 -454 -25 -509 -44 -108 -114 -151 -256 -157 -112 -5
-165 10 -224 61 -85 75 -91 117 -94 630 l-2 427 -83 0 -84 0 0 -428z"/>
<path d="M6790 4880 l0 -620 80 0 80 0 2 510 3 509 46 -87 c25 -48 100 -188
166 -312 65 -124 166 -314 223 -422 l104 -198 113 0 113 0 0 620 0 620 -80 0
-80 0 -1 -502 c-1 -277 -1 -507 1 -513 5 -29 -34 40 -195 345 -97 184 -217
410 -267 503 l-90 167 -109 0 -109 0 0 -620z"/>
<path d="M8255 5083 c-274 -721 -305 -804 -300 -812 2 -5 41 -8 86 -7 l81 1
55 158 55 157 277 0 276 0 27 -73 c15 -39 41 -110 58 -157 l30 -85 85 -3 c48
-2 85 1 85 6 0 5 -99 270 -221 588 -122 319 -226 594 -232 612 l-10 32 -97 0
-96 0 -159 -417z m359 -38 c53 -143 101 -270 106 -283 6 -13 10 -27 10 -32 0
-6 -87 -10 -220 -10 -121 0 -220 4 -220 9 0 4 24 73 54 152 29 79 77 211 106
292 29 81 57 144 61 140 4 -4 50 -125 103 -268z"/>
<path d="M3230 3241 c0 -5 -3 -16 -6 -25 -5 -13 2 -16 40 -16 28 0 46 -4 46
-12 0 -6 -16 -79 -36 -162 -45 -187 -48 -231 -15 -257 43 -35 151 -20 151 21
0 19 -4 20 -48 14 -83 -11 -84 -6 -25 237 l50 209 -79 0 c-43 0 -78 -4 -78 -9z"/>
<path d="M5965 3238 c-3 -7 -11 -40 -18 -73 l-14 -60 -58 -7 c-84 -11 -142
-49 -177 -117 -47 -89 -34 -191 27 -219 36 -17 80 -15 118 4 21 12 32 13 35 5
2 -6 16 -11 31 -11 27 0 28 1 24 48 -2 33 11 105 45 245 l49 197 -29 0 c-16 0
-31 -6 -33 -12z m-50 -210 c-40 -177 -46 -194 -66 -210 -27 -23 -77 -23 -101
-1 -41 36 -11 159 49 201 37 25 51 30 91 31 29 1 32 -2 27 -21z"/>
<path d="M8845 3238 c-3 -7 -11 -40 -18 -73 l-14 -60 -58 -7 c-84 -11 -142
-49 -177 -117 -47 -89 -34 -191 27 -219 36 -17 80 -15 118 4 21 12 32 13 35 5
2 -6 16 -11 31 -11 27 0 28 1 24 48 -2 33 11 105 45 245 l49 197 -29 0 c-16 0
-31 -6 -33 -12z m-50 -210 c-40 -177 -46 -194 -66 -210 -27 -23 -77 -23 -101
-1 -41 36 -11 159 49 201 37 25 51 30 91 31 29 1 32 -2 27 -21z"/>
<path d="M7370 3157 c-16 -29 -42 -76 -57 -104 -16 -29 -31 -53 -34 -53 -4 0
-10 45 -14 100 l-7 100 -28 0 c-26 0 -30 -6 -59 -87 -38 -109 -101 -319 -101
-339 0 -8 10 -14 25 -14 20 0 26 7 36 43 6 23 28 105 48 181 l38 139 6 -48 c4
-26 7 -70 7 -96 0 -47 1 -49 28 -49 25 0 34 10 76 85 43 76 73 117 61 83 -2
-7 -18 -76 -35 -153 -17 -77 -33 -150 -37 -162 -4 -20 -1 -23 25 -23 l30 0 25
138 c35 189 51 292 45 298 -3 2 -15 6 -27 9 -17 3 -27 -7 -51 -48z"/>
<path d="M1810 3198 c-1 -2 -25 -100 -54 -218 l-53 -215 130 -3 c71 -1 131 -1
132 0 1 2 6 13 9 26 7 22 7 22 -97 22 l-105 0 20 80 20 80 84 0 c46 0 84 4 84
9 0 5 3 16 6 25 5 14 -5 16 -75 16 -91 0 -88 -3 -69 79 l11 51 99 0 c54 0 98
4 98 9 0 5 3 16 6 25 5 14 -9 16 -120 16 -69 0 -126 -1 -126 -2z"/>
<path d="M2584 3182 c-6 -4 -15 -25 -20 -47 -9 -37 -12 -40 -47 -43 -20 -2
-37 -7 -37 -12 0 -5 -3 -15 -6 -24 -5 -13 1 -16 30 -16 20 0 36 -1 36 -2 0 -2
-9 -37 -20 -78 -29 -109 -27 -163 6 -189 18 -14 40 -21 68 -20 67 2 91 12 94
41 3 26 3 26 -37 16 -22 -6 -52 -7 -66 -4 -21 5 -25 12 -25 44 0 20 4 53 9 72
6 19 15 54 21 78 l11 42 64 0 c36 0 65 4 65 9 0 5 3 16 6 25 5 14 -4 16 -59
16 l-66 0 10 32 c14 49 11 68 -8 68 -10 0 -23 -4 -29 -8z"/>
<path d="M4384 3182 c-6 -4 -15 -25 -20 -47 -9 -37 -12 -40 -47 -43 -20 -2
-37 -7 -37 -12 0 -5 -3 -15 -6 -24 -5 -13 1 -16 30 -16 20 0 36 -1 36 -2 0 -2
-9 -37 -20 -78 -27 -105 -26 -155 5 -185 18 -19 34 -25 67 -24 69 2 93 11 96
41 3 26 3 26 -37 16 -22 -6 -52 -7 -66 -4 -21 5 -25 12 -25 44 0 20 4 53 9 72
6 19 15 54 21 78 l11 42 64 0 c36 0 65 4 65 9 0 5 3 16 6 25 5 12 -6 16 -59
18 l-64 3 12 48 c11 45 11 47 -9 47 -12 0 -26 -4 -32 -8z"/>
<path d="M2193 3085 c-32 -14 -63 -59 -63 -92 0 -28 24 -56 67 -78 52 -26 73
-45 73 -66 0 -41 -82 -63 -147 -38 -23 8 -30 7 -40 -7 -19 -27 -17 -30 32 -44
54 -15 134 -8 169 15 34 22 51 68 40 107 -7 24 -23 39 -72 66 -69 38 -79 61
-37 88 20 13 38 15 80 10 48 -5 56 -4 65 14 9 17 7 22 -15 30 -37 14 -114 12
-152 -5z"/>
<path d="M3992 3083 c-19 -9 -41 -31 -50 -50 -24 -50 -8 -81 63 -124 37 -22
61 -44 63 -57 7 -43 -77 -67 -145 -41 -23 8 -30 7 -40 -7 -19 -27 -16 -32 25
-43 130 -37 243 27 216 120 -7 26 -22 40 -72 67 -68 37 -78 60 -40 86 25 18
74 21 111 7 21 -8 26 -6 36 15 10 22 8 26 -15 34 -39 15 -115 11 -152 -7z"/>
<path d="M4736 3088 c-57 -16 -129 -91 -144 -150 -16 -61 -15 -80 4 -126 23
-60 90 -80 156 -46 22 11 33 13 41 5 6 -6 22 -11 34 -11 22 0 23 3 18 34 -5
22 4 76 24 161 17 71 29 130 27 132 -10 11 -124 11 -160 1z m94 -50 c-1 -7
-11 -55 -24 -107 -26 -105 -46 -131 -102 -131 -66 0 -84 93 -34 175 32 52 161
102 160 63z"/>
<path d="M6150 3084 c-131 -57 -173 -250 -68 -314 37 -22 101 -26 161 -9 30 8
37 14 37 36 0 20 -4 24 -17 19 -67 -26 -153 -13 -173 25 -21 39 -13 46 65 52
81 7 147 34 165 66 11 22 13 71 4 96 -16 42 -109 57 -174 29z"/>
<path d="M7949 3088 l-37 -9 -36 -145 c-44 -175 -44 -176 -9 -172 26 3 28 8
59 136 17 73 34 136 38 140 4 4 43 7 87 7 43 0 79 2 79 5 0 3 3 15 6 28 6 21
5 22 -72 21 -44 -1 -95 -5 -115 -11z"/>
<path d="M8336 3088 c-57 -16 -129 -91 -144 -150 -16 -61 -15 -80 4 -126 23
-60 90 -80 156 -46 22 11 33 13 41 5 6 -6 22 -11 34 -11 22 0 23 3 18 34 -5
22 4 76 24 161 17 71 29 130 27 132 -10 11 -124 11 -160 1z m94 -50 c-1 -7
-11 -55 -24 -107 -26 -105 -46 -131 -102 -131 -66 0 -84 93 -34 175 32 52 161
102 160 63z"/>
<path d="M9056 3088 c-57 -16 -129 -91 -144 -150 -16 -61 -15 -80 4 -126 23
-60 90 -80 156 -46 22 11 33 13 41 5 6 -6 22 -11 34 -11 22 0 23 3 18 34 -5
22 4 76 24 161 17 71 29 130 27 132 -10 11 -124 11 -160 1z m94 -50 c-1 -7
-11 -55 -24 -107 -26 -105 -46 -131 -102 -131 -66 0 -84 93 -34 175 32 52 161
102 160 63z"/>
<path d="M9393 3086 c-32 -15 -63 -60 -63 -93 0 -28 24 -56 67 -78 52 -26 73
-45 73 -66 0 -41 -82 -63 -147 -38 -23 8 -30 7 -40 -7 -19 -27 -17 -30 32 -44
54 -15 134 -8 169 15 34 22 51 68 40 107 -7 24 -23 39 -72 66 -69 38 -79 61
-37 88 20 13 38 15 80 10 48 -5 55 -4 65 15 7 11 9 23 6 26 -13 14 -142 13
-173 -1z"/>
<path d="M2837 3083 c-4 -3 -7 -15 -7 -25 0 -15 8 -18 45 -18 25 0 45 -3 45
-7 0 -5 -9 -44 -20 -88 -11 -44 -20 -88 -20 -97 0 -30 21 -65 47 -77 37 -17
100 -14 107 5 11 29 6 34 -34 34 -62 0 -67 21 -36 157 14 61 26 114 26 117 0
8 -145 7 -153 -1z"/>
<path d="M3557 3083 c-4 -3 -7 -15 -7 -25 0 -15 8 -18 45 -18 25 0 45 -3 45
-7 0 -5 -9 -44 -20 -88 -11 -44 -20 -88 -20 -97 0 -30 21 -65 47 -77 37 -17
100 -14 107 5 11 29 6 34 -34 34 -62 0 -67 21 -36 157 14 61 26 114 26 117 0
8 -145 7 -153 -1z"/>
<path d="M7517 3083 c-4 -3 -7 -15 -7 -25 0 -15 8 -18 46 -18 43 0 46 -2 40
-22 -3 -13 -13 -58 -22 -100 -20 -88 -11 -127 32 -147 30 -13 104 -15 104 -2
0 5 3 16 6 25 5 13 -2 16 -35 16 -64 0 -69 22 -37 154 14 59 26 112 26 117 0
10 -143 13 -153 2z"/>
</g>
</svg>
